# xmcd
#
# Track frame offsets: 
#        151
#        15917
#        36481
#        54868
#        82961
#        111739
#        127630
#        152731
#        175808
#        195533
#        221495
#        242857
#        272356
#        295416
#        319172
#
# Disc length: 4430 seconds
#
# Revision: 0
# Processed by: cddbd v1.4PL0 Copyright (c) Steve Scherf et al.
# Submitted via: ExactAudioCopy v0.95a3
#
DISCID=c9114c0f
DTITLE=Various Artist - When It's Time For Letting Go
DYEAR=1994
DGENRE=New Age
TTITLE0=Touch the Sky
TTITLE1=Mica
TTITLE2=Celebration
TTITLE3=Eternity
TTITLE4=Coeur de Lion
TTITLE5=Spring Song
TTITLE6=Cradle Song
TTITLE7=Eduardo's Beach
TTITLE8=Whisper of a Dream
TTITLE9=Midnight Dream
TTITLE10=Wildflowers
TTITLE11=Stars
TTITLE12=Connie's Butterfly
TTITLE13=Full Circle Waltz
TTITLE14=Hymn to Peace
EXTD=
EXTT0=
EXTT1=
EXTT2=
EXTT3=
EXTT4=
EXTT5=
EXTT6=
EXTT7=
EXTT8=
EXTT9=
EXTT10=
EXTT11=
EXTT12=
EXTT13=
EXTT14=
PLAYORDER=
